# xmcd
# Copyright (C) 1995-1998 Ti Kan
#
# Track frame offsets:
#       150
#       15597
#       28902
#       45747
#       59730
#       72475
#       83742
#       101710
#       114785
#       131627
#       145362
#       160345
#       169722
#       180607
#       194125
#       212395
#       224195
#       238530
#       253542
#       266627
#       277617
#       289817
#       301630
#
# Disc length: 4256 seconds
#
# Revision: 0
# Processed by: cddbd v1.5.2PL0 Copyright (c) Steve Scherf et al.
# Submitted via: CD-Import v1.0
#
DISCID=59109e17
DTITLE=House Of Love - 1986-88 The Creation Recordings
DYEAR=2001
DGENRE=
TTITLE0=Christine
TTITLE1=Hope
TTITLE2=Road
TTITLE3=Sulphur
TTITLE4=Man To Child
TTITLE5=Salome
TTITLE6=Love In A Car
TTITLE7=Happy
TTITLE8=Fisherman's Tale
TTITLE9=Touch Me
TTITLE10=Shine On
TTITLE11=Plastic
TTITLE12=Love
TTITLE13=Real Animal
TTITLE14=The Hedonist
TTITLE15=Flow
TTITLE16=Nothing To Me
TTITLE17=Welt
TTITLE18=On The Hill
TTITLE19=Loneliness Is A Gun
TTITLE20=Destroy The Heart
TTITLE21=Blind
TTITLE22=Mr. Jo
EXTD=
EXTT0=
EXTT1=
EXTT2=
EXTT3=
EXTT4=
EXTT5=
EXTT6=
EXTT7=
EXTT8=
EXTT9=
EXTT10=
EXTT11=
EXTT12=
EXTT13=
EXTT14=
EXTT15=
EXTT16=
EXTT17=
EXTT18=
EXTT19=
EXTT20=
EXTT21=
EXTT22=
PLAYORDER=
